#!OML:ASF F:\VICON\USERDATA\INSTALL\rory3\rory3.ASF
:FULLY-SPECIFIED
:DEGREES
10
root 1.2639800000000019 17.8149 -25.2414 -1.6161200000000013 1.929929999999991 2.543550000000008
lfemur 7.683140000000019 -1.326059999999998 -27.00359999999999
ltibia 15.418000000000013
lfoot -17.66920000000001 -4.438699999999997
ltoes 4.618559999999986
rfemur -30.206300000000027 8.618459999999999 14.876800000000017
rtibia 22.53590000000003
rfoot -6.097029999999995 -14.817399999999989
rtoes 10.762399999999984
lowerback 1.0 -1.4077700000000035 -3.996690000000005
upperback -0.12328700000000004 -2.283680000000003 1.6248
thorax -6.07303 -0.9747829999999993 4.332139999999997
lowerneck -15.263700000000002 -2.4727199999999994 -2.5908400000000014
upperneck 23.307 -2.6390500000000023 -0.6662230000000007
head 9.95909 -1.5318600000000004 -0.14162900000000003
lclavicle -5.665359999999996e-15 5.5659700000000055e-15
lhumerus -22.652399999999993 -4.643460000000002 80.1862
lradius 33.6049
lwrist 8.252290000000006
lhand -31.858700000000006 22.640799999999995
lfingers 7.12502
lthumb -5.112270000000006 52.5591
rclavicle -5.665359999999996e-15 5.5659700000000055e-15
rhumerus -35.830000000000005 -25.486200000000004 -71.6415
rradius 22.8759
rwrist 7.280940000000002
rhand -19.644600000000004 1.0
rfingers 7.12502
rthumb 6.682900000000003 -8.890929999999999
11
root 1.2339599999999997 17.7502 -24.729199999999956 -1.3283399999999996 2.109950000000005 2.381310000000012
lfemur 9.319760000000027 -1.4438900000000017 -26.92250000000001
ltibia 15.344199999999997
lfoot -18.06709999999997 -3.6948700000000017
ltoes 4.022790000000009
rfemur -30.24550000000003 10.574100000000008 13.899600000000026
rtibia 18.4798
rfoot -9.02822 -15.790599999999984
rtoes 4.632010000000002
lowerback 1.0 -1.612929999999996 -3.8728699999999887
upperback -0.11930800000000019 -2.51502 1.8449700000000002
thorax -5.838310000000001 -1.0966699999999978 4.513289999999994
lowerneck -15.2116 -2.3326100000000003 -2.909060000000002
upperneck 22.9951 -2.38284 -0.5800020000000011
head 9.84202 -1.4295500000000003 -0.021775899999999987
lclavicle -3.791819999999995e-14 -2.711709361697228e-31
lhumerus -22.259599999999985 -4.475070000000017 79.9983
lradius 35.03509999999999
lwrist 8.77729000000001
lhand -31.207699999999992 20.68959999999999
lfingers 7.12502
lthumb -4.483699999999999 50.62220000000001
rclavicle -3.791819999999995e-14 -2.711709361697228e-31
rhumerus -36.24530000000001 -26.2258 -70.7413
rradius 21.975099999999994
rwrist 8.309310000000005
rhand -19.608299999999996 1.0
rfingers 7.12502
rthumb 6.7179800000000025 -9.905499999999996
12
root 1.1899100000000007 17.6713 -24.212799999999973 -1.6317999999999984 1.7441000000000055 2.0899700000000085
lfemur 11.256600000000013 -1.6475899999999988 -26.7281
ltibia 16.017099999999985
lfoot -18.644299999999973 -2.6598499999999996
ltoes 1.3404800000000017
rfemur -29.995299999999965 9.478780000000008 14.891300000000012
rtibia 18.07680000000002
rfoot -9.19412 -12.225500000000007
rtoes 2.71641
lowerback 1.0 -1.4999300000000024 -3.5932399999999904
upperback -0.027925799999999446 -2.3458400000000035 1.9468399999999997
thorax -6.200980000000001 -1.01035 4.4702499999999965
lowerneck -15.9324 -2.2436000000000003 -2.749680000000001
upperneck 22.8076 -2.2381600000000006 -0.7181420000000003
head 9.90573 -1.36263 -0.08507249999999997
lclavicle -3.7967899999999994e-14 2.4649300000000017e-14
lhumerus -21.965900000000005 -4.902569999999993 79.8819
lradius 36.1699
lwrist 9.424600000000007
lhand -31.675799999999995 23.2457
lfingers 7.12502
lthumb -4.935730000000007 53.1682
rclavicle -3.7967899999999994e-14 2.4649300000000017e-14
rhumerus -36.87250000000002 -28.1632 -69.3087
rradius 20.815400000000007
rwrist 10.143600000000006
rhand -19.623799999999996 1.0
rfingers 7.12502
rthumb 6.702980000000003 -9.505929999999996
13
root 1.1272099999999998 17.6077 -23.671299999999974 -1.5792099999999991 1.6665299999999987 2.188470000000009
lfemur 12.638699999999975 -2.3060000000000005 -26.776099999999992
ltibia 17.030399999999972
lfoot -18.693800000000014 -2.4658300000000004
ltoes -1.5328499999999967
rfemur -30.48919999999997 8.419140000000006 15.498899999999988
rtibia 20.529900000000026
rfoot -7.602989999999998 -9.407979999999997
rtoes 5.281280000000001
lowerback 1.0 -1.8459799999999995 -4.337620000000001
upperback -0.5037489999999989 -2.893509999999991 2.41066
thorax -6.785979999999998 -1.2180399999999976 5.511299999999992
lowerneck -14.7097 -1.9348400000000012 -3.1465200000000024
upperneck 21.8881 -1.648570000000002 -1.1741100000000015
head 9.34818 -1.1669500000000006 -0.08132030000000001
lclavicle -5.864149999999993e-15 -9.541660000000018e-15
lhumerus -23.588799999999996 -3.471679999999985 79.9701
lradius 37.277200000000015
lwrist 9.771839999999994
lhand -32.16969999999999 23.0765
lfingers 7.12502
lthumb -5.4125400000000035 52.9873
rclavicle -5.864149999999993e-15 -9.541660000000018e-15
rhumerus -37.788600000000024 -27.52830000000001 -68.18229999999998
rradius 20.139199999999995
rwrist 10.684899999999992
rhand -19.0483 1.0
rfingers 7.12502
rthumb 7.25852 -8.157569999999998
